<svg width="58" height="58" viewBox="0 0 58 58" fill="none" xmlns="http://www.w3.org/2000/svg">
<g id="industry 1" clip-path="url(#clip0_1_1224)">
<g id="Group">
<g id="Group_2">
<g id="Group_3">
<path id="Vector" d="M20.504 57.6998H1.81256C0.874139 57.6998 0.113342 56.939 0.113342 56.0005V35.6099C0.113342 34.6715 0.874139 33.9107 1.81256 33.9107H20.504C21.4424 33.9107 22.2032 34.6715 22.2032 35.6099V56.0005C22.2032 56.939 21.4424 57.6998 20.504 57.6998Z" fill="#FB9333"/>
</g>
<g id="Group_4">
<path id="Vector_2" d="M20.504 33.9107H10.3087V57.6998H20.504C21.4424 57.6998 22.2032 56.939 22.2032 56.0005V35.6099C22.2032 34.6715 21.4424 33.9107 20.504 33.9107Z" fill="#FB9333"/>
</g>
<g id="Group_5">
<path id="Vector_3" d="M52.4676 13.3521L47.918 11.5396L42.9153 13.3521L41.4726 25.6146C41.416 26.0965 41.568 26.5796 41.8904 26.9422C42.2128 27.3048 42.675 27.5123 43.1602 27.5123H52.2227C52.7079 27.5123 53.1699 27.3048 53.4924 26.9422C53.815 26.5796 53.9669 26.0965 53.9102 25.6146L52.4676 13.3521Z" fill="#FB9333"/>
<g id="Group_6">
<path id="Vector_4" d="M53.9099 25.6146L52.4673 13.3521L47.9177 11.5396L47.6911 11.6217V27.5123H52.2224C52.7075 27.5123 53.1696 27.3048 53.4921 26.9422C53.8146 26.5796 53.9666 26.0964 53.9099 25.6146Z" fill="#FB9333"/>
</g>
<path id="Vector_5" d="M24.4804 25.6146C24.4238 26.0965 24.5758 26.5796 24.8982 26.9422C25.2206 27.3048 25.6828 27.5123 26.168 27.5123H35.2305C35.7157 27.5123 36.1778 27.3048 36.5003 26.9422C36.8228 26.5796 36.9747 26.0965 36.918 25.6146L35.4754 13.3521L30.8125 10.6334L25.9231 13.3521L24.4804 25.6146Z" fill="#FB9333"/>
<g id="Group_7">
<path id="Vector_6" d="M36.9177 25.6146L35.4751 13.3521L30.8122 10.6334L30.6989 10.6963V27.5123H35.2302C35.7153 27.5123 36.1774 27.3048 36.4999 26.9422C36.8224 26.5796 36.9744 26.0964 36.9177 25.6146Z" fill="#FB9333"/>
</g>
<path id="Vector_7" d="M51.6447 6.35677C51.5441 5.50093 50.8188 4.85602 49.9572 4.85602H45.4259C44.5643 4.85602 43.839 5.50093 43.7384 6.35677L42.9154 13.3521H52.4678L51.6447 6.35677Z" fill="#FFAC37"/>
<g id="Group_8">
<path id="Vector_8" d="M51.6443 6.35677C51.5437 5.50093 50.8183 4.85602 49.9567 4.85602H47.6911V13.3521H52.4673L51.6443 6.35677Z" fill="#FFAC37"/>
</g>
<path id="Vector_9" d="M32.965 4.85602H28.4338C27.5721 4.85602 26.8468 5.50093 26.7462 6.35677L25.9232 13.3521H35.4757L34.6527 6.35677C34.552 5.50093 33.8266 4.85602 32.965 4.85602Z" fill="#FFAC37"/>
<g id="Group_9">
<path id="Vector_10" d="M34.6521 6.35677C34.5515 5.50093 33.8262 4.85602 32.9645 4.85602H30.6989V13.3521H35.4751L34.6521 6.35677Z" fill="#FFAC37"/>
</g>
</g>
<g id="Group_10">
<g id="Group_11">
<path id="Vector_11" d="M6.91022 47.5045C5.9718 47.5045 5.211 46.7437 5.211 45.8052V42.4068C5.211 41.4684 5.9718 40.7076 6.91022 40.7076C7.84864 40.7076 8.60944 41.4684 8.60944 42.4068V45.8052C8.60944 46.7437 7.84864 47.5045 6.91022 47.5045Z" fill="#FFF8EE"/>
</g>
<g id="Group_12">
<path id="Vector_12" d="M13.7071 47.5045C12.7687 47.5045 12.0079 46.7437 12.0079 45.8052V42.4068C12.0079 41.4684 12.7687 40.7076 13.7071 40.7076C14.6455 40.7076 15.4063 41.4684 15.4063 42.4068V45.8052C15.4063 46.7437 14.6455 47.5045 13.7071 47.5045Z" fill="white"/>
</g>
</g>
<g id="Group_13">
<path id="Vector_13" d="M44.293 57.6998H56.1876C57.126 57.6998 57.8868 56.939 57.8868 56.0005V28.813C57.8868 27.8746 57.126 27.1138 56.1876 27.1138H22.2032C21.2648 27.1138 20.504 27.8746 20.504 28.813V57.6998H34.0977L38.9688 56.7935L44.293 57.6998Z" fill="#FFAC37"/>
</g>
<g id="Group_14">
<path id="Vector_14" d="M56.1876 27.1138H39.1954V56.832L44.293 57.6998H56.1876C57.126 57.6998 57.8868 56.939 57.8868 56.0005V28.813C57.8868 27.8746 57.126 27.1138 56.1876 27.1138Z" fill="#FFAC37"/>
</g>
</g>
<g id="Group_15">
<path id="Vector_15" d="M29.0001 50.9029C28.0616 50.9029 27.3008 50.1421 27.3008 49.2037V45.8052C27.3008 44.8668 28.0616 44.106 29.0001 44.106C29.9385 44.106 30.6993 44.8668 30.6993 45.8052V49.2037C30.6993 50.1421 29.9385 50.9029 29.0001 50.9029Z" fill="#FFF8EE"/>
</g>
<g id="Group_16">
<path id="Vector_16" d="M29.0001 40.7076C28.0616 40.7076 27.3008 39.9468 27.3008 39.0084V35.6099C27.3008 34.6715 28.0616 33.9107 29.0001 33.9107C29.9385 33.9107 30.6993 34.6715 30.6993 35.6099V39.0084C30.6993 39.9468 29.9385 40.7076 29.0001 40.7076Z" fill="#FFF8EE"/>
</g>
<g id="Group_17">
<path id="Vector_17" d="M49.3907 50.9029C48.4523 50.9029 47.6915 50.1421 47.6915 49.2037V45.8052C47.6915 44.8668 48.4523 44.106 49.3907 44.106C50.3291 44.106 51.0899 44.8668 51.0899 45.8052V49.2037C51.0899 50.1421 50.3291 50.9029 49.3907 50.9029Z" fill="white"/>
</g>
<g id="Group_18">
<path id="Vector_18" d="M49.3907 40.7076C48.4523 40.7076 47.6915 39.9468 47.6915 39.0084V35.6099C47.6915 34.6715 48.4523 33.9107 49.3907 33.9107C50.3291 33.9107 51.0899 34.6715 51.0899 35.6099V39.0084C51.0899 39.9468 50.3291 40.7076 49.3907 40.7076Z" fill="white"/>
</g>
<g id="Group_19">
<path id="Vector_19" d="M35.7969 40.7076C34.8585 40.7076 34.0977 39.9468 34.0977 39.0084V35.6099C34.0977 34.6715 34.8585 33.9107 35.7969 33.9107C36.7354 33.9107 37.4962 34.6715 37.4962 35.6099V39.0084C37.4962 39.9468 36.7354 40.7076 35.7969 40.7076Z" fill="#FFF8EE"/>
</g>
<g id="Group_20">
<path id="Vector_20" d="M42.5938 40.7076C41.6554 40.7076 40.8946 39.9468 40.8946 39.0084V35.6099C40.8946 34.6715 41.6554 33.9107 42.5938 33.9107C43.5322 33.9107 44.293 34.6715 44.293 35.6099V39.0084C44.293 39.9468 43.5322 40.7076 42.5938 40.7076Z" fill="white"/>
</g>
<g id="Group_21">
<g id="Group_22">
<path id="Vector_21" d="M42.5938 44.106H35.7969C34.8585 44.106 34.0977 44.8668 34.0977 45.8052V57.6998H37.4962L39.0821 56.567L40.8946 57.6998H44.293V45.8052C44.293 44.8668 43.5322 44.106 42.5938 44.106Z" fill="#FFF8EE"/>
</g>
<g id="Group_23">
<path id="Vector_22" d="M42.5938 44.106H39.1954V56.6378L40.8946 57.6998H44.293V45.8052C44.293 44.8668 43.5322 44.106 42.5938 44.106Z" fill="white"/>
</g>
<path id="Vector_23" d="M37.4962 47.5045H40.8946V57.6998H37.4962V47.5045Z" fill="#FFAC37"/>
<g id="Group_24">
<path id="Vector_24" d="M39.1954 47.5045H40.8946V57.6998H39.1954V47.5045Z" fill="#FFAC37"/>
</g>
</g>
</g>
</g>
<defs>
<clipPath id="clip0_1_1224">
<rect width="58" height="58" fill="white"/>
</clipPath>
</defs>
</svg>
